# xmcd
#
# Track frame offsets:
#	150
#	21132
#	34029
#	49086
#	64592
#	75618
#	85854
#	97200
#	113622
#	125924
#	144770
#	163473
#	178729
#	188185
#	203687
#	225505
#	241969
#	260233
#	272545
#	284540
#
# Disc length: 4031 seconds
#
# Revision: 1
# Processed by: cddbd v1.5.2PL0 Copyright (c) Steve Scherf et al.
# Submitted via: audiograbber 1.83.01
#
DISCID=1e0fbd14
DTITLE=TSP Country - TSP Country 023
DYEAR=2007
DGENRE=Country
TTITLE0=What Uset To Be  - Robin Landry
TTITLE1=Eye Of  The Beer Holder  - Darrin Allen
TTITLE2=That´s What Neighbors Do  - Lauren Smith
TTITLE3=I Can´t Belive She´s Gone  - Bird and Tines
TTITLE4=The Last Time  - Derek Mccorkell
TTITLE5=Front Porch Of The Opry  - Brad Miller
TTITLE6=Give Me A Bottle Of Whiskey  - Bryan Burnett
TTITLE7=Rules Of The Game  - Jim Gach
TTITLE8=A Thimble Of Tears - David Mullins
TTITLE9=We Don´t Have To Say Goodbye  - Gene Zierler
TTITLE10=Once Upon A Time  - Robin Landry
TTITLE11=She´s Got A Broken Heart  - Darrin Allen
TTITLE12=Hard On My Heart  - Lauren Smith
TTITLE13=The Bridge That Win´t Burn  - Mike Cunningham
TTITLE14=Home Is Where The Heart Is  - Derek Mccorkell 
TTITLE15=Holly Hill  - David Mullins
TTITLE16=Getting Right With The Man  - Johnny Owens
TTITLE17=My Heart Can´t Take The Beating Any More  - Charles Kirkland
TTITLE18=Saturday Night Catfight  - Tim Hopkins
TTITLE19=The Sorrow  - Dixie Vornbrock
EXTD=
EXTT0=
EXTT1=
EXTT2=
EXTT3=
EXTT4=
EXTT5=
EXTT6=
EXTT7=
EXTT8=
EXTT9=
EXTT10=
EXTT11=
EXTT12=
EXTT13=
EXTT14=
EXTT15=
EXTT16=
EXTT17=
EXTT18=
EXTT19=
PLAYORDER=
